<?xml version="1.0" encoding="utf-8"?>
<!-- Generator: Adobe Illustrator 27.5.0, SVG Export Plug-In . SVG Version: 6.00 Build 0)  -->
<svg version="1.1" id="Ebene_1" xmlns="http://www.w3.org/2000/svg" xmlns:xlink="http://www.w3.org/1999/xlink" x="0px" y="0px"
	 viewBox="0 0 231.6 57.2" style="enable-background:new 0 0 231.6 57.2;" xml:space="preserve">
<style type="text/css">
	.st0{fill:#FFFFFF;}
</style>
<g>
	<path class="st0" d="M30,6.8c-1.4-1.6-3.2-2.9-5.3-3.9c-2.1-1-4.6-1.5-7.4-1.5c-2.4,0-4.7,0.5-6.8,1.4C8.4,3.7,6.5,5,5,6.7
		s-2.8,3.7-3.7,6C0.4,14.9,0,17.4,0,20.1c0,2.8,0.4,5.4,1.3,7.8c0.8,2.4,2.1,4.5,3.7,6.2c1.6,1.7,3.5,3.1,5.7,4.1s4.7,1.5,7.3,1.5
		c3.1,0,5.9-0.6,8.3-1.8c2.4-1.2,4.5-3,6.2-5.3l0.2-0.3l-1.9-1.6L30.6,31c-1.5,2-3.4,3.6-5.5,4.7c-2.1,1.1-4.5,1.6-7.2,1.6
		c-2.6,0-4.9-0.5-6.9-1.5c-1.9-1-3.5-2.3-4.8-3.9c-1.3-1.6-2.2-3.5-2.8-5.5c-0.6-1.9-0.9-3.8-0.9-5.8H34v-1.9h0.1
		c0-2.1-0.3-4.3-1-6.3C32.4,10.3,31.4,8.5,30,6.8z M2.6,18.1c0.1-1.2,0.3-2.5,0.8-3.9c0.6-1.7,1.5-3.4,2.6-5c1.2-1.6,2.7-2.9,4.5-4
		s4-1.6,6.6-1.6c2.1,0,4.1,0.4,5.8,1.1c1.7,0.7,3.2,1.7,4.5,3c1.2,1.3,2.2,2.9,2.9,4.7c0.7,1.7,1.1,3.6,1.1,5.7H2.6z"/>
	<path class="st0" d="M55,36L42.4,2.7l-0.1-0.3h-2.8l14.1,36.7l-3.3,9c-0.3,0.8-0.6,1.6-1,2.4c-0.4,0.8-0.8,1.5-1.4,2.1
		c-0.5,0.6-1.2,1.1-1.9,1.5c-1.1,0.6-2.5,0.7-4.1,0.4c-0.5-0.1-0.9-0.2-1.2-0.3l-0.4-0.1l-0.7,2.3l0.4,0.1c0.4,0.2,0.9,0.3,1.6,0.4
		c0.6,0.1,1.2,0.2,1.7,0.2c2.2,0,4.1-0.6,5.5-1.9c1.4-1.2,2.5-3,3.4-5.3L69.9,2.5h-2.7L55,36z"/>
	<path class="st0" d="M228.1,5.1L228.1,5.1c-2.4-2.8-5.9-4.2-10.6-4.2c-2.6,0-5.1,0.7-7.5,2c-1.9,1.1-3.5,2.5-4.5,4.2
		c0-0.5,0-1-0.1-1.6c-0.1-1.2-0.1-2.3-0.2-3.2V1.9h-5.8v0.5c0.1,1.2,0.2,2.6,0.2,4.1s0.1,2.8,0.1,3.7v28.4h6.1V19.8
		c0-2.3,0.3-4.4,0.9-6.1s1.4-3.1,2.4-4.2c1-1.1,2.1-1.9,3.3-2.5c1.2-0.5,2.5-0.8,3.9-0.8c1.8,0,3.3,0.3,4.5,0.9
		c1.2,0.6,2.1,1.4,2.8,2.4c0.7,1.1,1.2,2.3,1.5,3.8c0.3,1.5,0.5,3.2,0.5,5.1v20.3h6.1V16.2C231.7,11.6,230.5,7.9,228.1,5.1z"/>
	<path class="st0" d="M172.3,0C161.1,0,152,9.1,152,20.4c0,11.2,9.1,20.4,20.4,20.4s20.4-9.1,20.4-20.4C192.7,9.1,183.6,0,172.3,0z
		 M172.4,35c-8.1,0-14.6-6.6-14.6-14.6c0-4.4,1.9-8.2,5-10.9c-0.5,1-0.6,2.1-0.3,3.2c0.8,2.7,4.4,4,8,2.9c3.6-1.1,5.8-4.2,5-6.9
		c-0.5-1.4-1.6-2.4-3-2.9c8,0.1,14.5,6.6,14.5,14.6C187,28.5,180.5,35,172.4,35z"/>
	<path class="st0" d="M141,24.8c-0.6-1.1-1.5-2.1-2.5-2.8s-2.2-1.4-3.6-1.9c-1.3-0.5-2.7-0.9-4.1-1.3c-1.5-0.4-2.8-0.7-4-1.1
		s-2.2-0.8-3-1.4c-0.8-0.5-1.4-1.2-1.9-2.1s-0.7-2-0.7-3.5c0-1.3,0.3-2.4,0.8-3.3c0.6-0.9,1.3-1.7,2.1-2.2c0.9-0.6,1.8-1,2.8-1.2
		s2-0.4,3-0.4c2,0,3.8,0.4,5.2,1.1c1.4,0.7,2.7,1.8,3.8,3.3l0.2,0.3l2.2-1.3L141,6.6c-2.5-3.5-6.2-5.3-11.2-5.3
		c-1.4,0-2.7,0.2-4.1,0.6c-1.3,0.4-2.6,1-3.6,1.8c-1.1,0.8-1.9,1.8-2.6,2.9c-0.6,1.2-1,2.6-1,4.2c0,1.6,0.3,2.9,0.8,4
		c0.5,1.1,1.2,2,2.1,2.7c0.9,0.7,1.9,1.3,3.1,1.8c1.1,0.4,2.3,0.8,3.7,1.2c1.2,0.3,2.4,0.6,3.8,1c1.3,0.4,2.5,0.9,3.6,1.5
		c1.1,0.6,2,1.4,2.7,2.3c0.7,0.9,1,2.2,1,3.7c0,1.3-0.3,2.5-0.8,3.5c-0.6,1-1.3,1.9-2.2,2.5c-0.9,0.7-1.9,1.2-3,1.5
		c-1.1,0.3-2.2,0.5-3.3,0.5c-4.6,0-8.2-1.7-10.7-5.2l-0.2-0.3l-2.1,1.4l0.3,0.4c1.4,2,3.2,3.5,5.4,4.6c2.2,1,4.6,1.5,7.3,1.5
		c1.6,0,3.2-0.2,4.6-0.7c1.4-0.5,2.7-1.2,3.8-2.1c1.1-0.9,2-2,2.6-3.3c0.6-1.3,1-2.8,1-4.4C141.9,27.3,141.6,25.9,141,24.8L141,24.8
		z"/>
	<path class="st0" d="M105.5,6.8c-1.4-1.6-3.2-2.9-5.3-3.9c-2.1-1-4.6-1.5-7.4-1.5c-2.4,0-4.7,0.5-6.8,1.4c-2.1,0.9-4,2.2-5.5,3.9
		s-2.8,3.7-3.7,6c-0.9,2.3-1.3,4.8-1.3,7.5c0,2.8,0.4,5.4,1.3,7.8c0.9,2.4,2.1,4.5,3.7,6.2s3.5,3.1,5.7,4.1c2.2,1,4.6,1.5,7.3,1.5
		c3.1,0,5.9-0.6,8.3-1.8c2.4-1.2,4.5-3,6.2-5.3l0.2-0.3l-1.9-1.6l-0.3,0.4c-1.5,2-3.4,3.6-5.5,4.7c-2.1,1.1-4.5,1.6-7.2,1.6
		c-2.6,0-4.9-0.5-6.9-1.5c-1.9-1-3.6-2.3-4.8-3.9c-1.3-1.6-2.2-3.5-2.8-5.5c-0.6-1.9-0.9-3.9-0.9-5.8h31.5v-2.1h0.2
		c0-2.1-0.3-4.3-1-6.3C107.9,10.3,106.9,8.5,105.5,6.8z M78.1,18.2c0.1-1.2,0.3-2.5,0.8-4c0.5-1.7,1.4-3.4,2.6-4.9
		c1.2-1.6,2.7-2.9,4.5-4c1.8-1.1,4-1.6,6.6-1.6c2.1,0,4.1,0.4,5.8,1.1c1.7,0.7,3.2,1.7,4.5,3c1.2,1.3,2.2,2.9,2.9,4.7
		c0.7,1.7,1.1,3.6,1.1,5.7H78.1z"/>
</g>
</svg>
