<svg version="1.1" xmlns="http://www.w3.org/2000/svg" viewBox="0 0 231.6 57.2">
  <path d="M34.1 18.7c0-2.1-.3-4.3-1-6.3-.7-2.1-1.7-3.9-3.1-5.6-1.4-1.6-3.2-2.9-5.3-3.9-2.1-1-4.6-1.5-7.4-1.5-2.4 0-4.7.5-6.8 1.4-2.1.9-4 2.2-5.5 3.9-1.5 1.7-2.8 3.7-3.7 6C.4 14.9 0 17.4 0 20.1c0 2.8.4 5.4 1.3 7.8.8 2.4 2.1 4.5 3.7 6.2 1.6 1.7 3.5 3.1 5.7 4.1 2.2 1 4.7 1.5 7.3 1.5 3.1 0 5.9-.6 8.3-1.8 2.4-1.2 4.5-3 6.2-5.3l.2-.3-1.9-1.6-.2.3c-1.5 2-3.4 3.6-5.5 4.7s-4.5 1.6-7.2 1.6c-2.6 0-4.9-.5-6.9-1.5-1.9-1-3.5-2.3-4.8-3.9-1.3-1.6-2.2-3.5-2.8-5.5-.6-1.9-.9-3.8-.9-5.8H34v-1.9zm-31.5-.4c.1-1.2.3-2.6.8-4.1.6-1.7 1.5-3.4 2.6-5 1.2-1.6 2.7-2.9 4.5-4 1.8-1.1 4-1.6 6.6-1.6 2.1 0 4.1.4 5.8 1.1 1.7.7 3.2 1.7 4.5 3 1.2 1.3 2.2 2.9 2.9 4.7.7 1.7 1.1 3.6 1.1 5.7H2.6zM67.2 2.5 55 36 42.4 2.7l-.1-.3h-2.8l14.1 36.7-3.3 9c-.3.8-.6 1.6-1 2.4-.4.8-.8 1.5-1.4 2.1-.5.6-1.2 1.1-1.9 1.5-1.1.6-2.5.7-4.1.4-.5-.1-.9-.2-1.2-.3l-.4-.1-.7 2.3.4.1c.4.2.9.3 1.6.4.6.1 1.2.2 1.7.2 2.2 0 4.1-.6 5.5-1.9 1.4-1.2 2.5-3 3.4-5.3L69.9 2.5h-2.7zM109.6 18.7c0-2.1-.3-4.3-1-6.3-.7-2.1-1.7-3.9-3.1-5.6-1.4-1.6-3.2-2.9-5.3-3.9-2.1-1-4.6-1.5-7.4-1.5-2.4 0-4.7.5-6.8 1.4-2.1.9-4 2.2-5.5 3.9-1.5 1.7-2.8 3.7-3.7 6-.9 2.3-1.3 4.8-1.3 7.5 0 2.8.4 5.4 1.3 7.8.9 2.4 2.1 4.5 3.7 6.2 1.6 1.7 3.5 3.1 5.7 4.1 2.2 1 4.6 1.5 7.3 1.5 3.1 0 5.9-.6 8.3-1.8 2.4-1.2 4.5-3 6.2-5.3l.2-.3-1.9-1.6-.3.4c-1.5 2-3.4 3.6-5.5 4.7s-4.5 1.6-7.2 1.6c-2.6 0-4.9-.5-6.9-1.5-1.9-1-3.6-2.3-4.8-3.9-1.3-1.6-2.2-3.5-2.8-5.5-.6-1.9-.9-3.9-.9-5.8h31.5v-2.1zm-31.5-.4c.1-1.2.3-2.6.8-4.1.5-1.7 1.4-3.4 2.6-4.9 1.2-1.6 2.7-2.9 4.5-4 1.8-1.1 4-1.6 6.6-1.6 2.1 0 4.1.4 5.8 1.1 1.7.7 3.2 1.7 4.5 3 1.2 1.3 2.2 2.9 2.9 4.7.7 1.7 1.1 3.6 1.1 5.7H78.1zM141 24.8c-.6-1.1-1.5-2.1-2.5-2.8-1-.7-2.2-1.4-3.6-1.9-1.3-.5-2.7-.9-4.1-1.3-1.5-.4-2.8-.7-4-1.1-1.2-.4-2.2-.8-3-1.4-.8-.5-1.4-1.2-1.9-2.1-.5-.9-.7-2-.7-3.5 0-1.3.3-2.4.8-3.3.6-.9 1.3-1.7 2.1-2.2.9-.6 1.8-1 2.8-1.2 1-.2 2-.4 3-.4 2 0 3.8.4 5.2 1.1 1.4.7 2.7 1.8 3.8 3.3l.2.3 2.2-1.3-.3-.4c-2.5-3.5-6.2-5.3-11.2-5.3-1.4 0-2.7.2-4.1.6-1.3.4-2.6 1-3.6 1.8-1.1.8-1.9 1.8-2.6 2.9-.6 1.2-1 2.6-1 4.2s.3 2.9.8 4 1.2 2 2.1 2.7c.9.7 1.9 1.3 3.1 1.8 1.1.4 2.3.8 3.7 1.2 1.2.3 2.4.6 3.8 1 1.3.4 2.5.9 3.6 1.5s2 1.4 2.7 2.3c.7.9 1 2.2 1 3.7 0 1.3-.3 2.5-.8 3.5-.6 1-1.3 1.9-2.2 2.5-.9.7-1.9 1.2-3 1.5-1.1.3-2.2.5-3.3.5-4.6 0-8.2-1.7-10.7-5.2l-.2-.3-2.1 1.4.3.4c1.4 2 3.2 3.5 5.4 4.6 2.2 1 4.6 1.5 7.3 1.5 1.6 0 3.2-.2 4.6-.7 1.4-.5 2.7-1.2 3.8-2.1 1.1-.9 2-2 2.6-3.3.6-1.3 1-2.8 1-4.4-.1-1.6-.4-3-1-4.1zM228.1 5.1c-2.4-2.8-5.9-4.2-10.6-4.2-2.6 0-5.1.7-7.5 2-1.9 1.1-3.5 2.5-4.5 4.2 0-.5 0-1-.1-1.6-.1-1.2-.1-2.3-.2-3.2v-.4h-5.8v.5c.1 1.2.2 2.6.2 4.1 0 1.5.1 2.8.1 3.7v28.4h6.1V19.8c0-2.3.3-4.4.9-6.1.6-1.7 1.4-3.1 2.4-4.2s2.1-1.9 3.3-2.5c1.2-.5 2.5-.8 3.9-.8 1.8 0 3.3.3 4.5.9 1.2.6 2.1 1.4 2.8 2.4.7 1.1 1.2 2.3 1.5 3.8.3 1.5.5 3.2.5 5.1v20.3h6.1V16.2c0-4.6-1.2-8.3-3.6-11.1zM172.3 0C161.1 0 152 9.1 152 20.4c0 11.2 9.1 20.4 20.4 20.4s20.4-9.1 20.4-20.4C192.7 9.1 183.6 0 172.3 0z" fill="#fff" />
  <path d="M157.8 20.4c0 8 6.5 14.6 14.6 14.6S187 28.5 187 20.4c0-8-6.5-14.5-14.5-14.6 1.4.5 2.5 1.5 3 2.9.8 2.7-1.4 5.8-5 6.9-3.6 1.1-7.2-.2-8-2.9-.3-1.1-.2-2.2.3-3.2-3.1 2.7-5 6.5-5 10.9" fill="#9e216c" />
</svg>